HIERARCHY
ROOT Hips
{
	OFFSET 0.000000 0.000000 0.000000 
	CHANNELS 6 Xposition Yposition Zposition Zrotation Yrotation Xrotation
	JOINT LeftUpLeg
	{
		OFFSET 1.363060 -1.794630 0.839290 
		CHANNELS 3 Zrotation Yrotation Xrotation
		JOINT LeftLeg
		{
			OFFSET 2.448110 -6.726130 0.000000 
			CHANNELS 3 Zrotation Yrotation Xrotation
			JOINT LeftFoot
			{
				OFFSET 2.562200 -7.039590 0.000000 
				CHANNELS 3 Zrotation Yrotation Xrotation
				JOINT LeftToeBase
				{
					OFFSET 0.157640 -0.433110 2.322550 
					CHANNELS 3 Zrotation Yrotation Xrotation
					End Site
					{
						OFFSET 0.000000 0.000000 0.000000 
					}
				}
			}
		}
	}
	JOINT RightUpLeg
	{
		OFFSET -1.305520 -1.794630 0.839290 
		CHANNELS 3 Zrotation Yrotation Xrotation
		JOINT RightLeg
		{
			OFFSET -2.542530 -6.985550 0.000000 
			CHANNELS 3 Zrotation Yrotation Xrotation
			JOINT RightFoot
			{
				OFFSET -2.568260 -7.056230 0.000000 
				CHANNELS 3 Zrotation Yrotation Xrotation
				JOINT RightToeBase
				{
					OFFSET -0.164730 -0.452590 2.363150 
					CHANNELS 3 Zrotation Yrotation Xrotation
					End Site
					{
						OFFSET 0.000000 0.000000 0.000000 
					}
				}
			}
		}
	}
	JOINT Spine
	{
		OFFSET 0.028270 2.035590 -0.193380 
		CHANNELS 3 Zrotation Yrotation Xrotation
		JOINT Spine1
		{
			OFFSET 0.056720 2.048850 -0.042750 
			CHANNELS 3 Zrotation Yrotation Xrotation
			JOINT Neck1
			{
				OFFSET -0.054170 1.746240 0.172020 
				CHANNELS 3 Zrotation Yrotation Xrotation
				JOINT Head
				{
					OFFSET 0.104070 1.761360 -0.123970 
					CHANNELS 3 Zrotation Yrotation Xrotation
					End Site
					{
						OFFSET 0.000000 0.000000 0.000000 
					}
				}
			}
			JOINT LeftArm
			{
				OFFSET 3.362410 1.200890 -0.311210 
				CHANNELS 3 Zrotation Yrotation Xrotation
				JOINT LeftForeArm
				{
					OFFSET 4.983000 -0.000000 -0.000000 
					CHANNELS 3 Zrotation Yrotation Xrotation
					JOINT LeftHand
					{
						OFFSET 3.483560 -0.000000 -0.000000 
						CHANNELS 3 Zrotation Yrotation Xrotation
						JOINT LeftHandIndex1
						{
							OFFSET 0.715260 -0.000000 -0.000000 
							CHANNELS 3 Zrotation Yrotation Xrotation
							End Site
							{
								OFFSET 0.000000 0.000000 0.000000 
							}
						}
					}
				}
			}
			JOINT RightArm
			{
				OFFSET -3.136600 1.374050 -0.404650 
				CHANNELS 3 Zrotation Yrotation Xrotation
				JOINT RightForeArm
				{
					OFFSET -5.241900 -0.000000 -0.000000 
					CHANNELS 3 Zrotation Yrotation Xrotation
					JOINT RightHand
					{
						OFFSET -3.444170 -0.000000 -0.000000 
						CHANNELS 3 Zrotation Yrotation Xrotation
						JOINT RightHandIndex1
						{
							OFFSET -0.622530 -0.000000 -0.000000 
							CHANNELS 3 Zrotation Yrotation Xrotation
							End Site
							{
								OFFSET 0.000000 0.000000 0.000000 
							}
						}
					}
				}
			}
		}
	}
}
MOTION
Frames: 16
Frame Time: 0.041667
-1.926435 16.575956 -29.060431 -168.031051 81.564990 -153.526321 -29.660017 -12.792891 0.408873 1.985647 8.331050 31.277824 0.001043 1.239362 -6.699170 0.000100 -0.066400 -0.182300 27.567131 39.047295 -26.266049 0.267102 -10.014267 25.659282 -1.849324 -16.781400 -30.664029 -6.040800 -14.467700 45.145200 2.788350 -2.174429 -3.703349 2.372890 -0.531532 -4.953368 13.313047 -21.495020 18.365879 5.222300 -10.038800 9.600800 -94.582240 5.806521 13.575885 25.494338 -28.542307 -6.609767 -0.609340 0.597894 30.844797 -7.125000 0.000000 0.000000 89.713595 -9.867893 24.091806 -15.834289 14.628609 -2.456907 -2.570636 0.410817 -5.002449 7.125000 0.000000 0.000000 
-1.797200 16.585727 -29.030591 -166.328725 81.590093 -152.055919 -29.294794 -11.798797 -1.139631 2.625657 9.232443 34.159969 -0.098305 1.213626 -4.896591 0.035400 1.214200 3.338400 28.674414 38.820112 -25.651306 0.233428 -10.059669 25.986075 -1.454892 -18.337884 -28.923379 -5.077400 -13.470500 41.156200 2.822317 -2.027466 -3.691367 2.314391 -0.467336 -5.033568 13.190570 -21.426408 18.344546 5.166700 -10.009500 9.556000 -94.747765 6.065993 13.633659 25.226467 -28.254528 -6.491685 -0.565991 0.657703 29.938939 -7.125000 0.000000 0.000000 89.819755 -9.667452 23.721799 -15.687507 14.470595 -2.481609 -2.598782 0.564654 -4.782369 7.125000 0.000000 0.000000 
-1.663553 16.596129 -29.004955 -165.429392 81.543719 -151.274212 -28.999045 -11.148519 -2.726773 3.280638 10.108447 37.013676 -0.172207 0.977298 -3.154379 0.261200 3.288300 9.082400 29.307876 38.630482 -25.036310 0.119303 -10.157165 26.444490 -1.811111 -16.742533 -30.179983 -5.482600 -13.907500 42.868000 2.726792 -1.845769 -3.643659 1.961412 -0.411843 -4.912312 13.009501 -21.452742 18.308787 5.030900 -10.001600 9.476100 -94.628167 6.060647 13.373477 24.905458 -27.897354 -6.341831 -0.554551 0.690904 30.220192 -7.125000 0.000000 0.000000 89.904583 -9.733504 24.779673 -15.827906 14.674029 -2.542667 -2.636662 0.495667 -6.196809 7.125000 0.000000 0.000000 
-1.535474 16.602223 -28.976376 -165.028909 81.476797 -150.799407 -28.738104 -10.755591 -4.545493 3.945368 10.990011 39.880790 -0.218451 0.885629 -1.421013 0.326900 3.674600 10.162900 29.814469 38.521559 -24.637516 0.050456 -10.225385 26.762431 -1.940402 -16.220295 -30.657410 -5.518400 -13.944800 43.016900 2.694621 -1.736994 -3.669895 1.819885 -0.366569 -4.869699 12.869806 -21.489884 18.257402 4.938400 -10.014000 9.408600 -94.792020 6.159559 12.712380 24.613165 -27.556785 -6.170852 -0.539954 0.703031 30.742949 -7.125000 0.000000 0.000000 89.909246 -9.862436 25.803858 -16.038104 14.943678 -2.596405 -2.659641 0.370744 -7.439691 7.125000 0.000000 0.000000 
-1.414330 16.606741 -28.943805 -164.269802 81.376999 -149.995039 -28.449769 -10.243349 -6.411733 4.633845 11.835809 42.733839 -0.248150 0.762288 0.596474 0.012500 -0.720700 -1.980600 30.266373 38.879002 -24.092316 -0.027443 -10.276012 27.057931 -2.205823 -15.354963 -31.806859 -5.831400 -14.262900 44.301200 2.761898 -1.683443 -3.682628 1.902729 -0.331427 -4.869705 12.877735 -21.456324 18.061182 4.951500 -10.017700 9.332800 -95.125248 6.042487 11.864502 24.383164 -27.334213 -6.074706 -0.524738 0.722131 31.491761 -7.125000 0.000000 0.000000 89.905583 -9.635547 25.614166 -16.092874 14.993345 -2.609850 -2.645727 0.438920 -7.101692 7.125000 0.000000 0.000000 
-1.297178 16.611049 -28.927414 -164.928923 81.273776 -150.772744 -28.317162 -10.322475 -7.960143 5.285759 12.634985 45.484986 -0.213160 1.328414 1.769079 0.014400 0.775400 2.131100 30.757814 38.700839 -23.407941 -0.106994 -10.309472 27.362740 -2.368559 -14.758562 -32.416546 -5.943600 -14.373500 44.755100 2.719973 -1.647304 -3.646323 1.731448 -0.324276 -4.870877 12.853658 -21.401224 17.759141 4.946800 -10.015500 9.167700 -95.107151 5.759044 11.503341 24.086659 -27.013672 -5.948691 -0.521124 0.741245 31.549285 -7.125000 0.000000 0.000000 89.869058 -9.473502 25.886461 -16.399234 15.292453 -2.638615 -2.581197 0.504402 -6.975564 7.125000 0.000000 0.000000 
-1.182653 16.628595 -28.918273 -165.173501 81.016641 -151.138419 -28.080949 -10.613450 -9.650707 5.997632 13.462758 48.407766 -0.168955 1.703335 2.470237 0.145600 2.459100 6.776200 31.327107 38.238138 -22.409332 -0.118374 -10.136731 27.158063 -2.692584 -13.043038 -33.343926 -6.526600 -14.919900 47.060300 2.738824 -1.701653 -3.624582 1.582099 -0.361274 -4.868865 12.765066 -21.311211 17.577118 4.935200 -10.000500 9.059400 -95.282790 5.657492 11.367451 23.949888 -26.896935 -5.928949 -0.530473 0.744549 31.027476 -7.125000 0.000000 0.000000 89.521344 -9.450651 27.190939 -16.927845 15.828232 -2.696410 -2.514004 0.439740 -8.015408 7.125000 0.000000 0.000000 
-1.067393 16.657804 -28.900306 -164.663550 80.658847 -150.549939 -27.653340 -11.037431 -11.563899 6.717513 14.271109 51.276827 -0.121018 2.005077 3.138182 0.243000 3.171900 8.757800 31.540896 38.635602 -21.373136 -0.136920 -9.911572 26.800047 -3.408676 -9.528723 -35.781484 -7.686600 -15.883800 51.425700 2.808585 -1.731129 -3.633347 1.557357 -0.376859 -4.830532 12.792057 -21.270030 17.437961 4.969100 -9.998600 9.019000 -95.544856 5.627910 11.159857 23.878546 -26.854306 -5.932086 -0.530196 0.747198 30.718047 -7.125000 0.000000 0.000000 89.244470 -9.379503 28.168515 -17.430448 16.360722 -2.789655 -2.480353 0.394341 -9.036420 7.125000 0.000000 0.000000 
-0.967893 16.620505 -28.881814 -163.401022 80.338704 -149.170436 -27.115174 -11.536503 -13.681039 7.519914 15.115554 54.358672 -0.077747 2.130826 3.594344 0.184300 2.765100 7.625600 33.257333 36.995252 -21.591765 0.146556 -9.764048 26.334473 -1.282299 -19.503373 -28.494398 -3.420500 -11.346500 33.457700 2.831623 -1.646939 -3.660768 1.405516 -0.342089 -4.878906 12.926254 -21.326918 17.239940 5.037100 -10.038000 8.956700 -95.580859 5.614409 11.202557 23.776865 -26.730459 -5.881653 -0.530099 0.747992 30.531796 -7.125000 0.000000 0.000000 89.190932 -9.381498 28.759369 -17.937947 16.928624 -2.911892 -2.466771 0.360672 -9.600092 7.125000 0.000000 0.000000 
-0.855259 16.626179 -28.857963 -161.340131 79.994452 -147.230033 -26.420664 -11.775640 -15.418556 8.297278 15.817433 57.175263 -0.078149 1.712046 3.409309 0.053300 1.489100 4.095800 34.369126 36.669658 -20.540637 0.226287 -9.487616 25.836914 -1.248299 -19.753436 -28.436451 -3.260100 -11.104600 32.633400 2.890805 -1.566892 -3.627344 1.271201 -0.319298 -4.885246 12.937917 -21.424974 17.124317 5.024800 -10.086400 8.927900 -95.644501 5.612951 11.373800 23.774351 -26.707726 -5.863152 -0.535471 0.735857 30.336842 -7.125000 0.000000 0.000000 89.008436 -9.321627 29.525919 -18.402328 17.439958 -3.028971 -2.455184 0.332662 -9.944531 7.125000 0.000000 0.000000 
-0.741470 16.626284 -28.830961 -159.891134 79.614120 -146.020205 -25.795626 -12.019031 -16.975208 9.047781 16.440775 59.809426 -0.100172 1.097508 2.618750 0.007600 0.564800 1.552000 35.535278 36.292608 -19.244501 0.316453 -9.151793 25.252641 -1.156965 -20.238067 -28.200256 -3.028300 -10.740600 31.410100 2.915285 -1.455001 -3.536959 1.129404 -0.281977 -4.817459 13.048822 -21.613911 17.037189 5.040600 -10.166000 8.965700 -95.559381 5.586638 11.663952 23.824447 -26.754764 -5.888780 -0.516487 0.750784 30.201634 -7.125000 0.000000 0.000000 88.702228 -9.273964 30.688141 -18.973843 18.065804 -3.202810 -2.458564 0.332636 -10.733895 7.125000 0.000000 0.000000 
-0.636611 16.623447 -28.813414 -159.494218 79.275100 -145.893670 -25.403076 -12.324093 -18.438119 9.714843 16.980909 62.114262 -0.107596 0.753034 1.963268 0.000700 0.174500 0.479500 36.490903 35.814501 -18.212387 0.330124 -8.992039 25.127210 -1.060174 -20.744654 -27.995418 -2.665000 -10.131800 29.404700 2.898450 -1.393162 -3.487981 0.937834 -0.268547 -4.914920 13.306087 -21.690514 16.865301 5.177700 -10.214000 8.955400 -95.536820 5.646527 11.783129 23.814533 -26.720381 -5.871896 -0.519919 0.745709 30.286012 -7.125000 0.000000 0.000000 88.248347 -9.310680 32.329081 -19.591278 18.744841 -3.392704 -2.465366 0.281252 -11.907009 7.125000 0.000000 0.000000 
-0.532068 16.621976 -28.793872 -158.680482 78.980424 -145.318927 -24.924509 -12.516149 -19.924518 10.322099 17.458560 64.160062 -0.121663 0.305839 1.283519 0.001800 0.275700 0.757600 37.442224 35.406840 -17.232234 0.345982 -8.832528 24.978356 -1.045464 -21.007531 -28.186044 -2.544700 -9.918700 28.713700 2.847851 -1.289734 -3.432989 0.641444 -0.245359 -5.018350 13.360182 -21.782485 16.708595 5.151900 -10.241300 8.886900 -95.366294 5.630844 12.189283 23.724010 -26.578226 -5.812135 -0.535370 0.737103 30.070188 -7.125000 0.000000 0.000000 88.119596 -9.033189 32.967921 -19.860411 19.075127 -3.470759 -2.459744 0.238537 -12.079740 7.125000 0.000000 0.000000 
-0.427840 16.618929 -28.772122 -157.669152 78.760956 -144.400933 -24.406899 -12.697030 -21.498900 10.866442 17.895983 65.961738 -0.140791 -0.242565 0.533940 0.011700 0.698500 1.919600 38.302269 35.044386 -16.469582 0.371926 -8.688263 24.808763 -1.010020 -21.297881 -28.246611 -2.398400 -9.650900 27.853400 2.815934 -1.160940 -3.388682 0.423536 -0.203363 -5.052233 13.353065 -21.949899 16.715661 5.065800 -10.282400 8.924500 -95.094811 5.513315 12.713565 23.634276 -26.450122 -5.770087 -0.512359 0.765382 29.545333 -7.125000 0.000000 0.000000 88.081994 -8.591433 32.917297 -19.978224 19.242760 -3.536292 -2.473251 0.287023 -11.621647 7.125000 0.000000 0.000000 
-0.323296 16.616512 -28.758253 -156.905201 78.777615 -143.818389 -24.155665 -12.685465 -22.903411 11.354596 18.259241 67.541489 -0.168747 -0.885773 0.109858 0.000000 0.021000 0.057600 39.031699 34.665468 -15.644444 0.377203 -8.564531 24.734337 -0.915177 -21.703032 -27.992245 -2.083600 -9.038100 25.914500 2.835349 -1.051537 -3.365709 0.390934 -0.154611 -5.159196 13.348372 -21.975839 16.778984 5.055700 -10.285100 8.980800 -95.114945 5.481252 12.681574 23.618175 -26.423464 -5.758476 -0.497276 0.775954 29.619759 -7.125000 0.000000 0.000000 87.667151 -8.303741 33.397529 -20.223443 19.506615 -3.648776 -2.492827 0.345857 -11.374472 7.125000 0.000000 0.000000 
-0.213920 16.614936 -28.744489 -155.642215 78.896259 -142.800564 -23.966278 -12.482594 -24.156584 11.758073 18.548979 68.825871 -0.198843 -1.465603 -0.037521 0.019500 -0.901800 -2.478600 39.760310 34.605293 -14.788807 0.345711 -8.511001 24.858353 -0.861033 -22.068502 -28.044240 -1.944100 -8.748800 25.012500 2.792536 -0.734576 -3.269556 0.240624 -0.013950 -5.146301 13.361392 -22.137762 16.685775 4.999400 -10.340800 8.963400 -94.988004 5.422197 13.155200 23.624631 -26.430316 -5.782449 -0.495172 0.786278 29.792419 -7.125000 0.000000 0.000000 87.501321 -7.899490 33.181397 -20.453989 19.767420 -3.712431 -2.474955 0.372240 -10.868031 7.125000 0.000000 0.000000 
